<svg xmlns="http://www.w3.org/2000/svg" viewBox="0 0 380.57 34.67"><title>animorphic_studios_logo</title><path d="M47,18.59c0-6.05,4-10.74,9.73-10.74,3.3,0,6.21,1.35,7.74,4V8.27h3.21v20.6H64.43v-3.6c-1.53,2.71-4.44,4-7.74,4C51,29.29,47,24.55,47,18.59Zm17.47,0c0-4.31-3.09-7.61-7-7.61-4.1,0-7.14,3.21-7.14,7.61s3,7.57,7.14,7.57C61.34,26.16,64.43,22.91,64.43,18.59Z" transform="translate(0 -0.32)" style="fill:#005cb9"/><path d="M72.21,8.27h3.21v3.51a8.05,8.05,0,0,1,7.15-3.93C87.73,7.85,90,11,90,16.39V28.87H86.8V16.81C86.8,13,85.4,11,81.68,11a6.17,6.17,0,0,0-6.26,6.3V28.87H72.21Z" transform="translate(0 -0.32)" style="fill:#005cb9"/><path d="M93.73,2.48A2.13,2.13,0,0,1,95.85.32,2.17,2.17,0,0,1,98,2.48a2.13,2.13,0,0,1-2.16,2.11A2.09,2.09,0,0,1,93.73,2.48Zm.51,5.79h3.22v20.6H94.24Z" transform="translate(0 -0.32)" style="fill:#005cb9"/><path d="M102,8.27h3.22v3.55a7.54,7.54,0,0,1,6.6-4c3.3,0,5.62,1.44,6.59,4.35a8.15,8.15,0,0,1,7.11-4.35c5,0,7.57,2.87,7.57,8.54V28.87h-3.26V16.81c0-3.51-1.22-5.83-5-5.83a5.66,5.66,0,0,0-5.66,5.88v12h-3.26V16.81c0-3.51-1.23-5.83-5-5.83A5.83,5.83,0,0,0,105.24,17V28.87H102Z" transform="translate(0 -0.32)" style="fill:#005cb9"/><path d="M136.45,18.59a10.83,10.83,0,1,1,10.83,10.7A10.7,10.7,0,0,1,136.45,18.59Zm18.36,0a7.53,7.53,0,1,0-15.06,0,7.53,7.53,0,1,0,15.06,0Z" transform="translate(0 -0.32)" style="fill:#005cb9"/><path d="M161.83,8.27H165v4.36c1.19-2.71,3.85-4.78,8-4.78v3.51c-4.82,0-8,2.71-8,7.74v9.77h-3.21Z" transform="translate(0 -0.32)" style="fill:#005cb9"/><path d="M175.87,8.27H179v3.55c1.52-2.66,4.52-4,7.86-4,5.71,0,9.73,4.69,9.73,10.7s-4,10.74-9.73,10.74a8.61,8.61,0,0,1-7.74-4v9.56h-3.21Zm17.38,10.28c0-4.36-3-7.57-7.15-7.57-3.93,0-7,3.25-7,7.57s3.09,7.61,7,7.61C190.21,26.16,193.25,23,193.25,18.55Z" transform="translate(0 -0.32)" style="fill:#005cb9"/><path d="M200.27,1h3.22V11.78a8,8,0,0,1,7.1-3.93c5.08,0,7.49,3,7.49,8.54V28.87h-3.26V16.81c0-3.8-1.48-5.83-5.2-5.83a6.07,6.07,0,0,0-6.13,6.26V28.87h-3.22Z" transform="translate(0 -0.32)" style="fill:#005cb9"/><path d="M221.76,2.48A2.13,2.13,0,0,1,223.87.32,2.16,2.16,0,0,1,226,2.48a2.13,2.13,0,0,1-2.16,2.11A2.09,2.09,0,0,1,221.76,2.48Zm.5,5.79h3.22v20.6h-3.22Z" transform="translate(0 -0.32)" style="fill:#005cb9"/><path d="M229.2,18.59A10.7,10.7,0,0,1,240,7.85a11,11,0,0,1,7.36,2.75l-2,2.28a7.7,7.7,0,0,0-5.29-1.9,7.39,7.39,0,0,0-7.57,7.61,7.38,7.38,0,0,0,7.65,7.57A8.32,8.32,0,0,0,246,23.84l1.87,2.41a11.34,11.34,0,0,1-7.87,3A10.66,10.66,0,0,1,229.2,18.59Z" transform="translate(0 -0.32)" style="fill:#005cb9"/><path d="M258.13,26.08l.8-1.27a8.51,8.51,0,0,0,6.77,2.92c3.89,0,6.3-1.95,6.3-4.27,0-2.88-2.92-3.6-5.84-4.32-3.63-.84-7.19-1.78-7.19-5.5,0-3.34,3.56-5.41,6.81-5.41a9.57,9.57,0,0,1,6.47,2.28l-.76,1.27a8.46,8.46,0,0,0-5.71-2c-2.75,0-5.16,1.7-5.16,3.85,0,2.71,2.92,3.34,5.88,4,3.56.8,7.15,2,7.15,5.84s-3.72,5.83-7.95,5.83A9.66,9.66,0,0,1,258.13,26.08Z" transform="translate(0 -0.32)" style="fill:#00a0df"/><path d="M278.43,23.33V10.05h-3.09V8.65h3.09V3.83L280,3.62v5h7.78v1.4H280V23.37c0,3.47,1.39,4.4,3.55,4.4a6.73,6.73,0,0,0,3.81-1.27l.63,1.31a7.85,7.85,0,0,1-4.44,1.48C280.71,29.29,278.43,28.15,278.43,23.33Z" transform="translate(0 -0.32)" style="fill:#00a0df"/><path d="M290.86,21.64v-13h1.61V21.51c0,4.44,2.24,6.22,6.09,6.22,4.19,0,6.85-3.85,6.85-7.19V8.65H307V28.87h-1.57v-4.1a7.66,7.66,0,0,1-7.19,4.52C293.7,29.29,290.86,27.13,290.86,21.64Z" transform="translate(0 -0.32)" style="fill:#00a0df"/><path d="M329.22,13.3V1h1.61V28.87h-1.61V24a9.22,9.22,0,0,1-8.37,5.28c-5.8,0-10-4.57-10-10.53s4.18-10.53,10-10.53A9.3,9.3,0,0,1,329.22,13.3Zm-8.29-3.51c-4.73,0-8.37,3.81-8.37,9s3.51,9,8.42,9c4.61,0,8.24-4,8.24-9S325.63,9.79,320.93,9.79Z" transform="translate(0 -0.32)" style="fill:#00a0df"/><path d="M335.23,2.94a1.31,1.31,0,0,1,1.31-1.31,1.35,1.35,0,0,1,1.35,1.31,1.36,1.36,0,0,1-1.35,1.35A1.32,1.32,0,0,1,335.23,2.94Zm.51,5.71h1.6V28.87h-1.6Z" transform="translate(0 -0.32)" style="fill:#00a0df"/><path d="M341.19,18.76a10.54,10.54,0,0,1,21.07,0,10.54,10.54,0,0,1-21.07,0Zm19.37,0a8.84,8.84,0,1,0-17.68,0,8.84,8.84,0,1,0,17.68,0Z" transform="translate(0 -0.32)" style="fill:#00a0df"/><path d="M365.05,26.08l.8-1.27a8.51,8.51,0,0,0,6.77,2.92c3.89,0,6.3-1.95,6.3-4.27,0-2.88-2.92-3.6-5.84-4.32-3.64-.84-7.19-1.78-7.19-5.5,0-3.34,3.55-5.41,6.81-5.41a9.57,9.57,0,0,1,6.47,2.28l-.76,1.27a8.48,8.48,0,0,0-5.71-2c-2.75,0-5.16,1.7-5.16,3.85,0,2.71,2.92,3.34,5.88,4,3.55.8,7.15,2,7.15,5.84s-3.72,5.83-7.95,5.83A9.66,9.66,0,0,1,365.05,26.08Z" transform="translate(0 -0.32)" style="fill:#00a0df"/><path d="M23.24,25.36a8.77,8.77,0,0,1-6.82,2.85c-5.6,0-10.08-4.81-10.08-10.88A10.62,10.62,0,0,1,16.84,6.46a9.63,9.63,0,0,1,6.44,2.09l.21-.08V1.62A17.27,17.27,0,1,0,17.27,35a17.12,17.12,0,0,0,6.22-1.18V25.49Z" transform="translate(0 -0.32)" style="fill:#005cb9"/><path d="M38.5,17.71c0-3.15-7-11.28-11.66-14.37V32.09C31.48,29,38.5,20.92,38.5,17.71Z" transform="translate(0 -0.32)" style="fill:#00a0df"/><path d="M9.69,17.33a7.82,7.82,0,0,0,7.57,8,6.54,6.54,0,0,0,6.23-3.51V11.48a9.54,9.54,0,0,0-6.23-2.09A7.79,7.79,0,0,0,9.69,17.33Z" transform="translate(0 -0.32)" style="fill:#00a0df"/></svg>